<?xml version="1.0" encoding="utf-8"?>
<svg xmlns="http://www.w3.org/2000/svg" viewBox="0 0 48 48" fill="#cccccc"><path d="M 12.5 6 C 8.916 6 6 8.916 6 12.5 L 6 14 L 42 14 L 42 12.5 C 42 8.916 39.084 6 35.5 6 L 12.5 6 z M 6 17 L 6 35.5 C 6 39.084 8.916 42 12.5 42 L 24.056641 42 C 22.760641 39.978 22 37.58 22 35 C 22 34.737 22.024062 34.481656 22.039062 34.222656 L 20.769531 35.171875 C 20.323531 35.506875 19.713812 35.515359 19.257812 35.193359 C 18.802813 34.871359 18.605484 34.291766 18.771484 33.759766 L 19.931641 30.050781 L 16.507812 27.453125 C 16.067812 27.119125 15.890406 26.543531 16.066406 26.019531 C 16.242406 25.496531 16.733156 25.142578 17.285156 25.142578 L 21.509766 25.142578 L 22.783203 21.439453 C 22.962203 20.920453 23.449047 20.570313 23.998047 20.570312 C 24.547047 20.570312 25.035844 20.920453 25.214844 21.439453 L 26.488281 25.142578 L 26.537109 25.142578 C 28.813109 23.187578 31.766 22 35 22 C 37.58 22 39.978 22.760641 42 24.056641 L 42 17 L 6 17 z M 35 24 C 28.925 24 24 28.925 24 35 C 24 41.075 28.925 46 35 46 C 41.075 46 46 41.075 46 35 C 46 28.925 41.075 24 35 24 z M 34 28 C 34.552 28 35 28.448 35 29 L 35 35 L 40 35 C 40.552 35 41 35.448 41 36 C 41 36.552 40.552 37 40 37 L 34 37 C 33.448 37 33 36.552 33 36 L 33 29 C 33 28.448 33.448 28 34 28 z" fill="#cccccc"/></svg>
